<mxfile host="app.diagrams.net" modified="2023-11-01T19:59:07.308Z" agent="Mozilla/5.0 (Windows NT 10.0; Win64; x64) AppleWebKit/537.36 (KHTML, like Gecko) Chrome/115.0.0.0 Safari/537.36" etag="yBAU1qbcc8Yq8HP-Zayf" version="22.0.8" type="github">
  <diagram name="PÃ¡gina-1" id="37iL9LiQDWbbj8UAkV65">
    <mxGraphModel dx="1420" dy="786" grid="0" gridSize="10" guides="1" tooltips="1" connect="1" arrows="1" fold="1" page="0" pageScale="1" pageWidth="827" pageHeight="1169" background="none" math="0" shadow="0">
      <root>
        <object label="" id="0">
          <mxCell />
        </object>
        <mxCell id="1" parent="0" />
      </root>
    </mxGraphModel>
  </diagram>
</mxfile>
